G04 DipTrace 2.4.0.2*
%INTop.gtl*%
%MOIN*%
%ADD13C,0.013*%
%ADD14C,0.025*%
%ADD15O,0.0787X0.0394*%
%ADD16C,0.05*%
%ADD17R,0.05X0.05*%
%ADD18C,0.05*%
%ADD19R,0.0551X0.0551*%
%ADD20C,0.0551*%
%FSLAX44Y44*%
G04*
G70*
G90*
G75*
G01*
%LNTop*%
%LPD*%
X4940Y9940D2*
D13*
X4440Y9440D1*
Y7940D1*
X4852Y7528D1*
X5315D1*
X5440Y7653D1*
X7940Y9940D2*
X8940Y10940D1*
X9440D1*
X5440Y6078D2*
X5802D1*
X6940Y4940D1*
X7440D1*
X8440D1*
X9940Y6440D1*
Y7440D1*
Y7940D2*
X7440D1*
X6440Y6940D1*
X5515D1*
X5440Y6865D1*
X9440Y9940D2*
X9940Y9440D1*
Y8440D1*
X9440D1*
X8940Y8940D1*
X5940D1*
X5440Y8440D1*
X4090Y11566D2*
D14*
X10792D1*
X4090Y11318D2*
X9065D1*
X9815D2*
X10792D1*
X4090Y11069D2*
X8577D1*
X9963D2*
X10792D1*
X4090Y10820D2*
X8327D1*
X9967D2*
X10792D1*
X4090Y10572D2*
X8081D1*
X9826D2*
X10792D1*
X4090Y10323D2*
X4569D1*
X5311D2*
X7569D1*
X8815D2*
X8899D1*
X9979D2*
X10792D1*
X4090Y10074D2*
X4417D1*
X5463D2*
X7417D1*
X8565D2*
X8901D1*
X9979D2*
X10792D1*
X4090Y9825D2*
X4335D1*
X5467D2*
X7413D1*
X8467D2*
X8901D1*
X10045D2*
X10792D1*
X5330Y9577D2*
X7550D1*
X8330D2*
X8901D1*
X10264D2*
X10792D1*
X4819Y9328D2*
X9561D1*
X10295D2*
X10792D1*
X4795Y9079D2*
X5589D1*
X9291D2*
X9585D1*
X10295D2*
X10792D1*
X4795Y8831D2*
X4875D1*
X10440D2*
X10792D1*
X4795Y8582D2*
X4875D1*
X6072D2*
X8808D1*
X10619D2*
X10792D1*
X4795Y8333D2*
X4875D1*
X6006D2*
X7081D1*
X7799D2*
X9054D1*
X10623D2*
X10792D1*
X4795Y8085D2*
X4875D1*
X6006D2*
X6921D1*
X10600D2*
X10792D1*
X5975Y7836D2*
X6843D1*
X10611D2*
X10792D1*
X4090Y7587D2*
X4300D1*
X6002D2*
X6597D1*
X7842D2*
X9280D1*
X10600D2*
X10792D1*
X4090Y7339D2*
X4550D1*
X5904D2*
X6347D1*
X7330D2*
X9269D1*
X10611D2*
X10792D1*
X4090Y7090D2*
X4925D1*
X7080D2*
X9417D1*
X10463D2*
X10792D1*
X4090Y6841D2*
X4874D1*
X6834D2*
X9585D1*
X10295D2*
X10792D1*
X4090Y6593D2*
X4948D1*
X5932D2*
X9585D1*
X10295D2*
X10792D1*
X4090Y6344D2*
X4944D1*
X6022D2*
X9351D1*
X10279D2*
X10792D1*
X4090Y6095D2*
X4874D1*
X6276D2*
X9104D1*
X10088D2*
X10792D1*
X4090Y5846D2*
X4925D1*
X6526D2*
X8854D1*
X9838D2*
X10792D1*
X4090Y5598D2*
X5167D1*
X5713D2*
X5792D1*
X6776D2*
X8604D1*
X9588D2*
X10792D1*
X4090Y5349D2*
X6038D1*
X7022D2*
X7102D1*
X7779D2*
X8358D1*
X9342D2*
X10792D1*
X4090Y5100D2*
X6288D1*
X9092D2*
X10792D1*
X4090Y4852D2*
X6538D1*
X8842D2*
X10792D1*
X4090Y4603D2*
X7026D1*
X7854D2*
X10792D1*
X4090Y4354D2*
X10792D1*
X4090Y4106D2*
X10792D1*
X10599Y8413D2*
Y8342D1*
X10571Y8225D1*
X10574Y8089D1*
X10599Y7940D1*
X10582Y7817D1*
X10525Y7693D1*
X10574Y7589D1*
X10599Y7440D1*
X10582Y7317D1*
X10533Y7202D1*
X10455Y7105D1*
X10353Y7032D1*
X10269Y7001D1*
X10270Y6440D1*
X10247Y6318D1*
X10173Y6207D1*
X8673Y4707D1*
X8571Y4637D1*
X8440Y4610D1*
X7835D1*
X7731Y4515D1*
X7620Y4458D1*
X7499Y4428D1*
X7374Y4429D1*
X7253Y4460D1*
X7143Y4519D1*
X7044Y4612D1*
X6940Y4610D1*
X6818Y4633D1*
X6707Y4707D1*
X5765Y5646D1*
X5658Y5583D1*
X5539Y5546D1*
X5414Y5538D1*
X5291Y5558D1*
X5176Y5606D1*
X5075Y5679D1*
X4993Y5773D1*
X4935Y5884D1*
X4904Y6005D1*
X4902Y6129D1*
X4928Y6251D1*
X4981Y6364D1*
X5068Y6469D1*
X4993Y6561D1*
X4935Y6671D1*
X4904Y6792D1*
X4902Y6917D1*
X4928Y7039D1*
X4981Y7151D1*
X5018Y7197D1*
X4852Y7198D1*
X4730Y7221D1*
X4619Y7295D1*
X4207Y7707D1*
X4137Y7809D1*
X4110Y7940D1*
Y9440D1*
X4133Y9562D1*
X4207Y9673D1*
X4425Y9892D1*
X4442Y10071D1*
X4488Y10187D1*
X4560Y10288D1*
X4655Y10369D1*
X4767Y10425D1*
X4888Y10452D1*
X5013Y10450D1*
X5133Y10417D1*
X5242Y10357D1*
X5334Y10272D1*
X5402Y10168D1*
X5443Y10050D1*
X5455Y9940D1*
X5440Y9816D1*
X5396Y9700D1*
X5324Y9597D1*
X5231Y9515D1*
X5120Y9458D1*
X4999Y9428D1*
X4894Y9429D1*
X4767Y9301D1*
X4770Y8077D1*
X4897Y7950D1*
X4899Y8981D1*
X5513D1*
X5707Y9173D1*
X5809Y9243D1*
X5940Y9270D1*
X8940D1*
X9062Y9247D1*
X9173Y9173D1*
X9491Y8856D1*
X9566Y8890D1*
X9610Y8940D1*
Y9303D1*
X9488Y9425D1*
X8925D1*
Y10455D1*
X9253Y10460D1*
X9143Y10519D1*
X9060Y10595D1*
X8452Y9986D1*
X8440Y9816D1*
X8396Y9700D1*
X8324Y9597D1*
X8231Y9515D1*
X8120Y9458D1*
X7999Y9428D1*
X7874Y9429D1*
X7753Y9460D1*
X7643Y9519D1*
X7551Y9603D1*
X7481Y9706D1*
X7438Y9823D1*
X7425Y9947D1*
X7442Y10071D1*
X7488Y10187D1*
X7560Y10288D1*
X7655Y10369D1*
X7767Y10425D1*
X7888Y10452D1*
X7986Y10450D1*
X8707Y11173D1*
X8809Y11243D1*
X8940Y11270D1*
X9045D1*
X9155Y11369D1*
X9267Y11425D1*
X9388Y11452D1*
X9513Y11450D1*
X9633Y11417D1*
X9742Y11357D1*
X9834Y11272D1*
X9902Y11168D1*
X9943Y11050D1*
X9955Y10940D1*
X9940Y10816D1*
X9896Y10700D1*
X9824Y10597D1*
X9731Y10515D1*
X9609Y10455D1*
X9955D1*
Y9889D1*
X10173Y9673D1*
X10243Y9571D1*
X10270Y9440D1*
Y8897D1*
X10349Y8876D1*
X10423Y8824D1*
X10521Y8726D1*
X10574Y8650D1*
X10599Y8538D1*
Y8413D1*
X9608Y7000D2*
X9485Y7057D1*
X9392Y7140D1*
X9324Y7245D1*
X9288Y7364D1*
X9284Y7489D1*
X9316Y7613D1*
X8190Y7610D1*
X7835D1*
X7731Y7515D1*
X7620Y7458D1*
X7499Y7428D1*
X7394Y7429D1*
X6673Y6707D1*
X6571Y6637D1*
X6440Y6610D1*
X5913D1*
X5856Y6520D1*
X5808Y6474D1*
X5871Y6398D1*
X5898Y6394D1*
X6008Y6336D1*
X7060Y5286D1*
X7155Y5369D1*
X7267Y5425D1*
X7388Y5452D1*
X7513Y5450D1*
X7633Y5417D1*
X7742Y5357D1*
X7836Y5269D1*
X8303Y5270D1*
X9613Y6579D1*
X9610Y6999D1*
X6930Y7897D2*
X6925Y7947D1*
X6942Y8071D1*
X6988Y8187D1*
X7060Y8288D1*
X7155Y8369D1*
X7267Y8425D1*
X7388Y8452D1*
X7513Y8450D1*
X7633Y8417D1*
X7742Y8357D1*
X7836Y8269D1*
X9147Y8270D1*
X8801Y8613D1*
X7065Y8610D1*
X6077D1*
X5983Y8516D1*
X5981Y7899D1*
X5922D1*
X5961Y7797D1*
X5981Y7653D1*
X5966Y7529D1*
X5924Y7411D1*
X5856Y7307D1*
X5819Y7272D1*
X6300Y7270D1*
X6928Y7894D1*
X10690Y11815D2*
X4065D1*
Y4065D1*
X10815D1*
Y11815D1*
X10690D1*
G36*
X10235Y8243D2*
X10334Y8342D1*
Y8538D1*
X10235Y8637D1*
X9645D1*
X9546Y8538D1*
Y8342D1*
X9645Y8243D1*
X10235D1*
G37*
D15*
X9940Y7940D3*
Y7440D3*
D16*
X9440Y10940D3*
D17*
Y9940D3*
D16*
X4940D3*
D18*
X7940D3*
D16*
X7440Y4940D3*
D18*
Y7940D3*
D19*
X5440Y8440D3*
D20*
Y7653D3*
Y6865D3*
Y6078D3*
M02*
