M48
INCH
T01C0.022
T02C0.0276
T03C0.028
T04C0.0315
T05C0.0354
T06C0.0394
T07C0.0591
%
T01
X+014940Y+008440
X+014940Y+011440
X+012440Y+017440
X+009440Y+017440
X+005440Y+015440
X+005440Y+012440
T02
X+007440Y+007940
X+007440Y+008440
X+007440Y+008940
T03
X+015940Y+013940
X+014940Y+013940
T04
X+005440Y+007940
X+005440Y+008727
X+005440Y+009515
T05
X+012916Y+007940
X+008940Y+007940
X+007440Y+013440
X+007440Y+014440
T06
X+011440Y+005940
X+010440Y+005940
T07
X+012940Y+014940
X+009003Y+014940
X+009003Y+010924
X+010971Y+009940
X+012940Y+010924
T00
M30
