G04 DipTrace 2.4.0.2*
%INTopSilk.gto*%
%MOIN*%
%ADD10C,0.0098*%
%ADD54C,0.0077*%
%FSLAX44Y44*%
G04*
G70*
G90*
G75*
G01*
%LNTopSilk*%
%LPD*%
X10241Y5340D2*
D10*
X11639D1*
X10241Y6540D2*
X11639D1*
Y5340D2*
G03X11639Y6540I1J600D01*
G01*
X10241D2*
G03X10241Y5340I-1J-600D01*
G01*
X14640Y9139D2*
X15240D1*
X14640Y10741D2*
Y9139D1*
Y10741D2*
X15240D1*
Y9139D1*
X11741Y17140D2*
Y17740D1*
X10139Y17140D2*
X11741D1*
X10139D2*
Y17740D1*
X11741D1*
X11933Y8393D2*
Y7487D1*
X9923D1*
X11599Y8393D2*
Y7487D1*
X9923Y8393D2*
Y7487D1*
X11933Y8393D2*
X9923D1*
X6909Y7684D2*
G03X6909Y9196I666J756D01*
G01*
Y7684D1*
X13491Y15767D2*
Y9625D1*
X13255Y9389D2*
X8688D1*
X8452Y9625D2*
Y15767D1*
X8688Y16003D2*
X13255D1*
G02X13491Y15767I0J-236D01*
G01*
Y9625D2*
G02X13255Y9389I-236J0D01*
G01*
X8688D2*
G02X8452Y9625I0J236D01*
G01*
Y15767D2*
G02X8688Y16003I236J0D01*
G01*
X14440Y13191D2*
Y14689D1*
X14442Y13188D2*
G03X14442Y14692I998J752D01*
G01*
X5007Y7546D2*
Y9909D1*
X5873Y7546D2*
Y9909D1*
X5007Y7546D2*
X5873D1*
X5007Y9909D2*
X5873D1*
X7940Y14940D2*
X6940D1*
X7940Y12940D2*
Y14940D1*
Y12940D2*
X6940D1*
Y14940D1*
X5740Y14742D2*
X5140D1*
X5740Y13139D2*
Y14742D1*
Y13139D2*
X5140D1*
Y14742D1*
X9645Y7176D2*
D54*
X9693Y7200D1*
X9765Y7272D1*
Y6770D1*
X10063Y7272D2*
X9991Y7248D1*
X9943Y7176D1*
X9919Y7057D1*
Y6985D1*
X9943Y6865D1*
X9991Y6794D1*
X10063Y6770D1*
X10110D1*
X10182Y6794D1*
X10230Y6865D1*
X10254Y6985D1*
Y7057D1*
X10230Y7176D1*
X10182Y7248D1*
X10110Y7272D1*
X10063D1*
X10230Y7176D2*
X9943Y6865D1*
X10552Y7272D2*
X10480Y7248D1*
X10432Y7176D1*
X10408Y7057D1*
Y6985D1*
X10432Y6865D1*
X10480Y6794D1*
X10552Y6770D1*
X10600D1*
X10672Y6794D1*
X10719Y6865D1*
X10743Y6985D1*
Y7057D1*
X10719Y7176D1*
X10672Y7248D1*
X10600Y7272D1*
X10552D1*
X10719Y7176D2*
X10432Y6865D1*
X10898Y6687D2*
X11352D1*
X11507Y7105D2*
Y6865D1*
X11530Y6794D1*
X11578Y6770D1*
X11650D1*
X11698Y6794D1*
X11770Y6865D1*
Y7105D2*
Y6770D1*
X12235Y7272D2*
X11924D1*
Y6770D1*
Y7033D2*
X12115D1*
X14004Y8549D2*
X13980Y8597D1*
X13908Y8669D1*
X14410D1*
X14493Y8823D2*
Y9278D1*
X13908Y9432D2*
X14410D1*
X13908Y9767D2*
X14243Y9432D1*
X14123Y9551D2*
X14410Y9767D1*
X14075Y10041D2*
X14099Y9993D1*
X14147Y9945D1*
X14219Y9921D1*
X14266D1*
X14338Y9945D1*
X14386Y9993D1*
X14410Y10041D1*
Y10113D1*
X14386Y10161D1*
X14338Y10208D1*
X14266Y10232D1*
X14219D1*
X14147Y10208D1*
X14099Y10161D1*
X14075Y10113D1*
Y10041D1*
X13908Y10387D2*
X14410D1*
X14171D2*
X14099Y10459D1*
X14075Y10507D1*
Y10579D1*
X14099Y10626D1*
X14171Y10650D1*
X14410D1*
X14075Y10804D2*
X14410D1*
X14171D2*
X14099Y10876D1*
X14075Y10924D1*
Y10996D1*
X14099Y11044D1*
X14171Y11067D1*
X14410D1*
X14171D2*
X14099Y11139D1*
X14075Y11187D1*
Y11259D1*
X14099Y11307D1*
X14171Y11331D1*
X14410D1*
X9525Y18376D2*
X9573Y18400D1*
X9645Y18472D1*
Y17970D1*
X9800Y17887D2*
X10254D1*
X10791Y17970D2*
Y18472D1*
X10599Y17970D1*
X10408Y18472D1*
Y17970D1*
X11064Y18305D2*
X11017Y18281D1*
X10969Y18233D1*
X10945Y18161D1*
Y18114D1*
X10969Y18042D1*
X11017Y17994D1*
X11064Y17970D1*
X11136D1*
X11184Y17994D1*
X11232Y18042D1*
X11256Y18114D1*
Y18161D1*
X11232Y18233D1*
X11184Y18281D1*
X11136Y18305D1*
X11064D1*
X11411Y18472D2*
Y17970D1*
Y18209D2*
X11482Y18281D1*
X11531Y18305D1*
X11602D1*
X11650Y18281D1*
X11674Y18209D1*
Y17970D1*
X11828Y18305D2*
Y17970D1*
Y18209D2*
X11900Y18281D1*
X11948Y18305D1*
X12019D1*
X12067Y18281D1*
X12091Y18209D1*
Y17970D1*
Y18209D2*
X12163Y18281D1*
X12211Y18305D1*
X12282D1*
X12331Y18281D1*
X12355Y18209D1*
Y17970D1*
X9741Y9029D2*
X9789Y9053D1*
X9860Y9124D1*
Y8623D1*
X10350Y9125D2*
Y8623D1*
X10015Y9125D1*
Y8623D1*
X10743D2*
Y9124D1*
X10504Y8790D1*
X10863D1*
X11161Y9124D2*
X11089Y9101D1*
X11041Y9029D1*
X11017Y8909D1*
Y8838D1*
X11041Y8718D1*
X11089Y8646D1*
X11161Y8623D1*
X11209D1*
X11280Y8646D1*
X11328Y8718D1*
X11352Y8838D1*
Y8909D1*
X11328Y9029D1*
X11280Y9101D1*
X11209Y9124D1*
X11161D1*
X11328Y9029D2*
X11041Y8718D1*
X11650Y9124D2*
X11578Y9101D1*
X11530Y9029D1*
X11507Y8909D1*
Y8838D1*
X11530Y8718D1*
X11578Y8646D1*
X11650Y8623D1*
X11698D1*
X11770Y8646D1*
X11817Y8718D1*
X11842Y8838D1*
Y8909D1*
X11817Y9029D1*
X11770Y9101D1*
X11698Y9124D1*
X11650D1*
X11817Y9029D2*
X11530Y8718D1*
X11996Y9029D2*
X12044Y9053D1*
X12116Y9124D1*
Y8623D1*
X6296Y7074D2*
X6273D1*
X6224Y7097D1*
X6201Y7121D1*
X6177Y7169D1*
Y7265D1*
X6201Y7312D1*
X6224Y7336D1*
X6273Y7360D1*
X6320D1*
X6368Y7336D1*
X6439Y7289D1*
X6679Y7049D1*
Y7384D1*
X6176Y7873D2*
X6679D1*
X6176Y7539D1*
X6679D1*
Y8123D2*
X6177Y8363D1*
Y8028D1*
Y8661D2*
X6201Y8589D1*
X6273Y8541D1*
X6392Y8517D1*
X6464D1*
X6583Y8541D1*
X6655Y8589D1*
X6679Y8661D1*
Y8708D1*
X6655Y8780D1*
X6583Y8828D1*
X6464Y8852D1*
X6392D1*
X6273Y8828D1*
X6201Y8780D1*
X6177Y8708D1*
Y8661D1*
X6273Y8828D2*
X6583Y8541D1*
X6177Y9150D2*
X6201Y9078D1*
X6273Y9030D1*
X6392Y9007D1*
X6464D1*
X6583Y9030D1*
X6655Y9078D1*
X6679Y9150D1*
Y9198D1*
X6655Y9270D1*
X6583Y9317D1*
X6464Y9341D1*
X6392D1*
X6273Y9317D1*
X6201Y9270D1*
X6177Y9198D1*
Y9150D1*
X6273Y9317D2*
X6583Y9030D1*
X6177Y9640D2*
X6201Y9568D1*
X6273Y9520D1*
X6392Y9496D1*
X6464D1*
X6583Y9520D1*
X6655Y9568D1*
X6679Y9640D1*
Y9687D1*
X6655Y9759D1*
X6583Y9806D1*
X6464Y9831D1*
X6392D1*
X6273Y9806D1*
X6201Y9759D1*
X6177Y9687D1*
Y9640D1*
X6273Y9806D2*
X6583Y9520D1*
X9879Y16616D2*
X9856Y16663D1*
X9808Y16711D1*
X9760Y16735D1*
X9664D1*
X9616Y16711D1*
X9569Y16663D1*
X9544Y16616D1*
X9521Y16544D1*
Y16424D1*
X9544Y16353D1*
X9569Y16305D1*
X9616Y16257D1*
X9664Y16233D1*
X9760D1*
X9808Y16257D1*
X9856Y16305D1*
X9879Y16353D1*
X10177Y16735D2*
X10130Y16712D1*
X10082Y16664D1*
X10058Y16616D1*
X10034Y16544D1*
Y16425D1*
X10058Y16353D1*
X10082Y16305D1*
X10130Y16257D1*
X10177Y16233D1*
X10273D1*
X10321Y16257D1*
X10369Y16305D1*
X10392Y16353D1*
X10417Y16425D1*
Y16544D1*
X10392Y16616D1*
X10369Y16664D1*
X10321Y16712D1*
X10273Y16735D1*
X10177D1*
X10249Y16329D2*
X10392Y16185D1*
X10571Y16639D2*
X10619Y16663D1*
X10691Y16735D1*
Y16233D1*
X10845Y16484D2*
X11122D1*
X11276Y16639D2*
X11324Y16663D1*
X11396Y16735D1*
Y16233D1*
X11575Y16615D2*
Y16639D1*
X11599Y16687D1*
X11622Y16711D1*
X11670Y16735D1*
X11766D1*
X11814Y16711D1*
X11837Y16687D1*
X11862Y16639D1*
Y16592D1*
X11837Y16543D1*
X11790Y16472D1*
X11551Y16233D1*
X11885D1*
X12040Y16735D2*
X12231Y16233D1*
X12422Y16735D1*
X13827Y12294D2*
X13780Y12270D1*
X13732Y12222D1*
X13708Y12175D1*
Y12079D1*
X13732Y12031D1*
X13780Y11984D1*
X13827Y11959D1*
X13899Y11935D1*
X14019D1*
X14090Y11959D1*
X14138Y11984D1*
X14186Y12031D1*
X14210Y12079D1*
Y12175D1*
X14186Y12222D1*
X14138Y12270D1*
X14090Y12294D1*
X14019D1*
Y12175D1*
X13875Y12449D2*
X14210D1*
X14019D2*
X13947Y12473D1*
X13899Y12520D1*
X13875Y12568D1*
Y12640D1*
X14019Y12795D2*
Y13082D1*
X13971D1*
X13923Y13058D1*
X13899Y13034D1*
X13875Y12986D1*
Y12914D1*
X13899Y12867D1*
X13947Y12818D1*
X14019Y12795D1*
X14067D1*
X14138Y12818D1*
X14186Y12867D1*
X14210Y12914D1*
Y12986D1*
X14186Y13034D1*
X14138Y13082D1*
X14019Y13236D2*
Y13523D1*
X13971D1*
X13923Y13499D1*
X13899Y13475D1*
X13875Y13427D1*
Y13355D1*
X13899Y13308D1*
X13947Y13260D1*
X14019Y13236D1*
X14067D1*
X14138Y13260D1*
X14186Y13308D1*
X14210Y13355D1*
Y13427D1*
X14186Y13475D1*
X14138Y13523D1*
X13875Y13677D2*
X14210D1*
X13971D2*
X13899Y13749D1*
X13875Y13797D1*
Y13868D1*
X13899Y13917D1*
X13971Y13940D1*
X14210D1*
X14293Y14095D2*
Y14549D1*
X13708Y14703D2*
X14210D1*
Y14990D1*
X13708Y15455D2*
Y15145D1*
X14210D1*
Y15455D1*
X13947Y15145D2*
Y15336D1*
X13708Y15610D2*
X14210D1*
Y15777D1*
X14186Y15849D1*
X14138Y15897D1*
X14090Y15921D1*
X14019Y15945D1*
X13899D1*
X13827Y15921D1*
X13780Y15897D1*
X13732Y15849D1*
X13708Y15777D1*
Y15610D1*
X4275Y7296D2*
X4777D1*
X4275Y7631D2*
X4777D1*
X4514Y7296D2*
Y7631D1*
X4586Y7785D2*
Y8072D1*
X4538D1*
X4490Y8048D1*
X4466Y8024D1*
X4442Y7976D1*
Y7904D1*
X4466Y7857D1*
X4514Y7809D1*
X4586Y7785D1*
X4633D1*
X4705Y7809D1*
X4753Y7857D1*
X4777Y7904D1*
Y7976D1*
X4753Y8024D1*
X4705Y8072D1*
X4442Y8513D2*
X4777D1*
X4514D2*
X4466Y8466D1*
X4442Y8417D1*
Y8346D1*
X4466Y8298D1*
X4514Y8251D1*
X4586Y8226D1*
X4633D1*
X4705Y8251D1*
X4753Y8298D1*
X4777Y8346D1*
Y8417D1*
X4753Y8466D1*
X4705Y8513D1*
X4275Y8954D2*
X4777D1*
X4514D2*
X4466Y8907D1*
X4442Y8859D1*
Y8787D1*
X4466Y8739D1*
X4514Y8691D1*
X4586Y8667D1*
X4633D1*
X4705Y8691D1*
X4753Y8739D1*
X4777Y8787D1*
Y8859D1*
X4753Y8907D1*
X4705Y8954D1*
X4586Y9109D2*
Y9396D1*
X4538D1*
X4490Y9372D1*
X4466Y9348D1*
X4442Y9300D1*
Y9228D1*
X4466Y9181D1*
X4514Y9132D1*
X4586Y9109D1*
X4633D1*
X4705Y9132D1*
X4753Y9181D1*
X4777Y9228D1*
Y9300D1*
X4753Y9348D1*
X4705Y9396D1*
X4442Y9550D2*
X4777D1*
X4586D2*
X4514Y9574D1*
X4466Y9622D1*
X4442Y9670D1*
Y9742D1*
X4514Y10159D2*
X4466Y10135D1*
X4442Y10064D1*
Y9992D1*
X4466Y9920D1*
X4514Y9896D1*
X4562Y9920D1*
X4586Y9968D1*
X4610Y10087D1*
X4633Y10135D1*
X4681Y10159D1*
X4705D1*
X4753Y10135D1*
X4777Y10064D1*
Y9992D1*
X4753Y9920D1*
X4705Y9896D1*
X6471Y11011D2*
Y11226D1*
X6447Y11297D1*
X6423Y11322D1*
X6375Y11346D1*
X6303D1*
X6256Y11322D1*
X6232Y11297D1*
X6208Y11226D1*
Y11011D1*
X6710D1*
X6375Y11619D2*
X6399Y11572D1*
X6447Y11524D1*
X6519Y11500D1*
X6566D1*
X6638Y11524D1*
X6686Y11572D1*
X6710Y11619D1*
Y11691D1*
X6686Y11739D1*
X6638Y11787D1*
X6566Y11811D1*
X6519D1*
X6447Y11787D1*
X6399Y11739D1*
X6375Y11691D1*
Y11619D1*
Y11965D2*
X6710Y12061D1*
X6375Y12157D1*
X6710Y12252D1*
X6375Y12348D1*
X6519Y12502D2*
Y12789D1*
X6471D1*
X6423Y12765D1*
X6399Y12742D1*
X6375Y12694D1*
Y12622D1*
X6399Y12574D1*
X6447Y12526D1*
X6519Y12502D1*
X6566D1*
X6638Y12526D1*
X6686Y12574D1*
X6710Y12622D1*
Y12694D1*
X6686Y12742D1*
X6638Y12789D1*
X6375Y12944D2*
X6710D1*
X6519D2*
X6447Y12968D1*
X6399Y13015D1*
X6375Y13064D1*
Y13135D1*
X6793Y13290D2*
Y13744D1*
X6447Y13898D2*
Y14113D1*
X6423Y14185D1*
X6399Y14210D1*
X6351Y14233D1*
X6303D1*
X6256Y14210D1*
X6232Y14185D1*
X6208Y14113D1*
Y13898D1*
X6710D1*
X6447Y14066D2*
X6710Y14233D1*
X6519Y14388D2*
Y14675D1*
X6471D1*
X6423Y14651D1*
X6399Y14627D1*
X6375Y14579D1*
Y14507D1*
X6399Y14460D1*
X6447Y14412D1*
X6519Y14388D1*
X6566D1*
X6638Y14412D1*
X6686Y14460D1*
X6710Y14507D1*
Y14579D1*
X6686Y14627D1*
X6638Y14675D1*
X6447Y15092D2*
X6399Y15068D1*
X6375Y14996D1*
Y14925D1*
X6399Y14853D1*
X6447Y14829D1*
X6495Y14853D1*
X6519Y14901D1*
X6543Y15020D1*
X6566Y15068D1*
X6615Y15092D1*
X6638D1*
X6686Y15068D1*
X6710Y14996D1*
Y14925D1*
X6686Y14853D1*
X6638Y14829D1*
X6208Y15246D2*
X6232Y15270D1*
X6208Y15295D1*
X6183Y15270D1*
X6208Y15246D1*
X6375Y15270D2*
X6710D1*
X6447Y15712D2*
X6399Y15688D1*
X6375Y15616D1*
Y15545D1*
X6399Y15473D1*
X6447Y15449D1*
X6495Y15473D1*
X6519Y15521D1*
X6543Y15640D1*
X6566Y15688D1*
X6615Y15712D1*
X6638D1*
X6686Y15688D1*
X6710Y15616D1*
Y15545D1*
X6686Y15473D1*
X6638Y15449D1*
X6208Y15938D2*
X6615D1*
X6686Y15962D1*
X6710Y16010D1*
Y16058D1*
X6375Y15866D2*
Y16034D1*
Y16331D2*
X6399Y16284D1*
X6447Y16236D1*
X6519Y16212D1*
X6566D1*
X6638Y16236D1*
X6686Y16284D1*
X6710Y16331D1*
Y16403D1*
X6686Y16451D1*
X6638Y16499D1*
X6566Y16523D1*
X6519D1*
X6447Y16499D1*
X6399Y16451D1*
X6375Y16403D1*
Y16331D1*
Y16678D2*
X6710D1*
X6519D2*
X6447Y16702D1*
X6399Y16749D1*
X6375Y16798D1*
Y16869D1*
X4504Y12304D2*
X4480Y12352D1*
X4408Y12424D1*
X4910D1*
X4408Y12722D2*
X4432Y12650D1*
X4504Y12602D1*
X4623Y12579D1*
X4695D1*
X4815Y12602D1*
X4886Y12650D1*
X4910Y12722D1*
Y12770D1*
X4886Y12842D1*
X4815Y12889D1*
X4695Y12914D1*
X4623D1*
X4504Y12889D1*
X4432Y12842D1*
X4408Y12770D1*
Y12722D1*
X4504Y12889D2*
X4815Y12602D1*
X4993Y13068D2*
Y13522D1*
X4408Y13677D2*
X4910D1*
X4408Y14012D2*
X4743Y13677D1*
X4623Y13796D2*
X4910Y14012D1*
X4575Y14285D2*
X4599Y14238D1*
X4647Y14190D1*
X4719Y14166D1*
X4766D1*
X4838Y14190D1*
X4886Y14238D1*
X4910Y14285D1*
Y14357D1*
X4886Y14405D1*
X4838Y14453D1*
X4766Y14477D1*
X4719D1*
X4647Y14453D1*
X4599Y14405D1*
X4575Y14357D1*
Y14285D1*
X4408Y14632D2*
X4910D1*
X4671D2*
X4599Y14703D1*
X4575Y14751D1*
Y14823D1*
X4599Y14871D1*
X4671Y14895D1*
X4910D1*
X4575Y15049D2*
X4910D1*
X4671D2*
X4599Y15121D1*
X4575Y15169D1*
Y15240D1*
X4599Y15288D1*
X4671Y15312D1*
X4910D1*
X4671D2*
X4599Y15384D1*
X4575Y15432D1*
Y15503D1*
X4599Y15551D1*
X4671Y15576D1*
X4910D1*
M02*
